<svg width="40" height="14" viewBox="0 0 40 14" fill="none" xmlns="http://www.w3.org/2000/svg">
<path d="M7.5 4L4.5 7L7.5 10" stroke="#9E8CD1" stroke-width="1.5" stroke-linecap="round" stroke-linejoin="round"/>
<path d="M18.016 9.944V2.6H16.9V11H21.64V9.944H18.016ZM23.1794 3.908C23.5634 3.908 23.8754 3.596 23.8754 3.212C23.8754 2.828 23.5634 2.504 23.1794 2.504C22.7834 2.504 22.4714 2.828 22.4714 3.212C22.4714 3.596 22.7834 3.908 23.1794 3.908ZM22.6514 11H23.6954V5H22.6514V11ZM26.1764 6.62C26.1764 6.08 26.7044 5.816 27.2444 5.816C27.7724 5.816 28.3004 6.044 28.5284 6.584L29.4044 6.092C29.0204 5.312 28.2284 4.844 27.2444 4.844C26.0324 4.844 25.1204 5.576 25.1204 6.632C25.1204 8.804 28.4804 8.072 28.4804 9.356C28.4804 9.944 27.9284 10.172 27.2924 10.172C26.5484 10.172 25.9964 9.812 25.8044 9.236L24.9044 9.752C25.2524 10.58 26.0924 11.156 27.2924 11.156C28.5764 11.156 29.5364 10.472 29.5364 9.356C29.5364 7.148 26.1764 7.904 26.1764 6.62ZM33.8021 6.008V5H32.2061V3.32L31.1621 3.632V5H29.9741V6.008H31.1621V9.26C31.1621 10.76 32.0021 11.24 33.8021 11V10.064C32.7341 10.112 32.2061 10.172 32.2061 9.26V6.008H33.8021ZM35.6451 6.62C35.6451 6.08 36.1731 5.816 36.7131 5.816C37.2411 5.816 37.7691 6.044 37.9971 6.584L38.8731 6.092C38.4891 5.312 37.6971 4.844 36.7131 4.844C35.5011 4.844 34.5891 5.576 34.5891 6.632C34.5891 8.804 37.9491 8.072 37.9491 9.356C37.9491 9.944 37.3971 10.172 36.7611 10.172C36.0171 10.172 35.4651 9.812 35.2731 9.236L34.3731 9.752C34.7211 10.58 35.5611 11.156 36.7611 11.156C38.0451 11.156 39.0051 10.472 39.0051 9.356C39.0051 7.148 35.6451 7.904 35.6451 6.62Z" fill="#9E8CD1"/>
</svg>
